<svg width="20" height="20" viewBox="0 0 20 20" fill="none" xmlns="http://www.w3.org/2000/svg">
<g clip-path="url(#clip0_1_27)">
<path d="M9.38801 8.534C9.55065 8.51121 9.71619 8.52069 9.87517 8.56188C10.0342 8.60307 10.1835 8.67517 10.3146 8.77406C10.4457 8.87296 10.5561 8.99671 10.6393 9.13825C10.7226 9.27979 10.7772 9.43636 10.8 9.599C10.8228 9.76164 10.8133 9.92718 10.7721 10.0862C10.7309 10.2451 10.6588 10.3945 10.5599 10.5256C10.4611 10.6567 10.3373 10.767 10.1958 10.8503C10.0542 10.9336 9.89765 10.9882 9.73501 11.011C9.40654 11.057 9.07324 10.9707 8.80844 10.7709C8.54364 10.5712 8.36903 10.2745 8.32301 9.946C8.277 9.61753 8.36335 9.28423 8.56308 9.01943C8.7628 8.75463 9.05954 8.58001 9.38801 8.534Z" fill="#0D0D0D"/>
<path fill-rule="evenodd" clip-rule="evenodd" d="M10.3891 5.587C10.8481 5.568 11.2611 5.597 11.6591 5.742L11.8891 5.837C12.4191 6.078 12.8721 6.462 13.1991 6.947L13.2831 7.08C13.4671 7.396 13.5761 7.747 13.6571 8.14C13.7481 8.583 13.8151 9.136 13.8991 9.82L14.2451 12.632L14.3551 13.562C14.3864 13.842 14.4064 14.0943 14.4151 14.319C14.4321 14.721 14.4121 15.088 14.3101 15.439L14.2601 15.589C14.0601 16.138 13.7131 16.62 13.2581 16.982L13.0571 17.13C12.7071 17.366 12.3121 17.495 11.8621 17.588C11.6421 17.6327 11.3924 17.674 11.1131 17.712L10.1831 17.83L7.37106 18.176C6.68706 18.26 6.13506 18.328 5.68306 18.346C5.28206 18.363 4.91506 18.342 4.56306 18.24L4.41406 18.191C3.86595 17.9913 3.38358 17.6442 3.02006 17.188L2.87306 16.988C2.63706 16.637 2.50806 16.243 2.41506 15.793C2.37039 15.573 2.32906 15.323 2.29106 15.043L2.17306 14.114L1.82706 11.302C1.74306 10.618 1.67506 10.065 1.65706 9.614C1.63706 9.155 1.66706 8.742 1.81106 8.344L1.90606 8.114C2.1485 7.58354 2.53259 7.13024 3.01606 6.804L3.14906 6.72C3.46506 6.535 3.81606 6.427 4.20906 6.346C4.65206 6.254 5.20506 6.187 5.88906 6.103L8.70006 5.758L9.63006 5.648C9.91006 5.61734 10.1627 5.597 10.3881 5.587M6.75606 13.059C6.39042 12.9779 6.00876 13.0104 5.66206 13.152C5.50206 13.217 5.32806 13.335 5.06806 13.582C4.80306 13.837 4.49106 14.187 4.04006 14.693L3.64706 15.133C3.66972 15.2757 3.69306 15.406 3.71706 15.524C3.79306 15.893 3.87506 16.096 3.97406 16.243L4.06006 16.36C4.27006 16.624 4.55006 16.825 4.86806 16.941L5.00406 16.981C5.15306 17.015 5.34606 17.029 5.62806 17.017C6.01206 17.002 6.50206 16.942 7.20806 16.855L10.0201 16.511L10.9301 16.394L11.1771 16.357L8.61406 14.307C8.08406 13.883 7.71706 13.591 7.41306 13.385C7.25071 13.2678 7.07434 13.1714 6.88806 13.098L6.75606 13.059ZM10.4421 6.916C10.2501 6.924 10.0311 6.943 9.77206 6.971L8.86206 7.078L6.05006 7.423C5.34406 7.509 4.85406 7.57 4.47706 7.648C4.20106 7.705 4.01706 7.766 3.88106 7.835L3.75906 7.906C3.47806 8.096 3.25506 8.359 3.11506 8.666L3.06006 8.8C3.00006 8.966 2.96906 9.183 2.98406 9.56C3.00006 9.944 3.06006 10.434 3.14606 11.14L3.42206 13.39L3.64306 13.143C3.82506 12.945 3.99339 12.7713 4.14806 12.622C4.46706 12.317 4.78206 12.075 5.15906 11.921L5.38606 11.838C5.92248 11.6657 6.49513 11.6395 7.04506 11.762L7.19206 11.799C7.53106 11.897 7.83906 12.067 8.15806 12.283C8.51606 12.526 8.93106 12.858 9.44406 13.268L12.5961 15.788C12.7781 15.603 12.9201 15.381 13.0101 15.134L13.0501 14.998C13.0831 14.849 13.0971 14.656 13.0861 14.374C13.0752 14.1501 13.0569 13.9267 13.0311 13.704L12.9241 12.794L12.5791 9.981C12.4921 9.276 12.4311 8.786 12.3531 8.409C12.3174 8.20274 12.2548 8.00204 12.1671 7.812L12.0961 7.69C11.9066 7.40991 11.6437 7.18743 11.3361 7.047L11.2021 6.992C11.0351 6.932 10.8191 6.901 10.4421 6.916Z" fill="#0D0D0D"/>
<path d="M9.72802 1.59C10.18 1.608 10.732 1.677 11.416 1.76L14.228 2.106L15.158 2.224C15.4373 2.26266 15.6873 2.304 15.908 2.348C16.358 2.441 16.751 2.57 17.102 2.806L17.302 2.954C17.758 3.316 18.105 3.798 18.306 4.348L18.354 4.497C18.457 4.848 18.477 5.215 18.461 5.617C18.4503 5.84233 18.4297 6.09466 18.399 6.374L18.289 7.304L17.944 10.117C17.86 10.801 17.794 11.353 17.702 11.796C17.621 12.19 17.512 12.54 17.328 12.856L17.244 12.99C17.0964 13.2082 16.9224 13.4074 16.726 13.583L16.617 13.662C16.4745 13.7422 16.3075 13.7672 16.1477 13.7322C15.988 13.6972 15.8467 13.6047 15.7508 13.4722C15.6549 13.3397 15.6111 13.1766 15.6277 13.0139C15.6444 12.8512 15.7203 12.7003 15.841 12.59L16.001 12.428C16.0517 12.37 16.0983 12.3093 16.141 12.246L16.213 12.124C16.281 11.988 16.343 11.804 16.399 11.527C16.477 11.15 16.539 10.661 16.625 9.955L16.97 7.142L17.077 6.232C17.105 5.974 17.124 5.755 17.132 5.562C17.1473 5.35332 17.1352 5.14354 17.096 4.938L17.056 4.803C16.94 4.48529 16.7386 4.20572 16.474 3.995L16.357 3.909C16.21 3.809 16.007 3.727 15.639 3.651C15.4193 3.60691 15.1982 3.57023 14.976 3.541L14.066 3.426L11.254 3.081C10.548 2.994 10.058 2.934 9.67402 2.919C9.46534 2.90375 9.25556 2.91585 9.05002 2.955L8.91402 2.995C8.59606 3.11061 8.31614 3.31164 8.10502 3.576L8.02002 3.693C7.95302 3.793 7.89302 3.92 7.83802 4.105L7.78702 4.23C7.70864 4.3743 7.57972 4.48456 7.42501 4.5396C7.27029 4.59464 7.1007 4.59059 6.9488 4.52821C6.79689 4.46584 6.67338 4.34955 6.602 4.20166C6.53061 4.05378 6.51637 3.88474 6.56202 3.727L6.63102 3.52C6.70291 3.31893 6.79931 3.12749 6.91802 2.95L7.06502 2.748C7.42882 2.29162 7.91155 1.94454 8.46002 1.745L8.61002 1.696C8.96002 1.594 9.32802 1.573 9.73002 1.59" fill="#0D0D0D"/>
</g>
<defs>
<clipPath id="clip0_1_27">
<rect width="20" height="20" fill="white"/>
</clipPath>
</defs>
</svg>
