<svg width="20" height="20" viewBox="0 0 20 20" fill="none" xmlns="http://www.w3.org/2000/svg">
<g clip-path="url(#clip0_1_21)">
<path d="M14.086 8.75C14.086 7.33507 13.5239 5.97809 12.5234 4.97759C11.5229 3.97708 10.1659 3.415 8.75097 3.415C7.33604 3.415 5.97906 3.97708 4.97855 4.97759C3.97805 5.97809 3.41597 7.33507 3.41597 8.75C3.41597 10.1649 3.97805 11.5219 4.97855 12.5224C5.97906 13.5229 7.33604 14.085 8.75097 14.085C10.1659 14.085 11.5229 13.5229 12.5234 12.5224C13.5239 11.5219 14.086 10.1649 14.086 8.75ZM15.416 8.75C15.4175 10.2911 14.883 11.7848 13.904 12.975L13.97 13.03L16.97 16.03L17.056 16.134C17.1398 16.262 17.1769 16.415 17.1612 16.5672C17.1455 16.7194 17.0779 16.8615 16.9697 16.9697C16.8615 17.0779 16.7193 17.1456 16.5671 17.1613C16.4149 17.177 16.262 17.1398 16.134 17.056L16.03 16.971L13.03 13.971L12.975 13.903C11.8042 14.8626 10.3416 15.3951 8.82788 15.4128C7.31417 15.4305 5.83954 14.9323 4.64663 14.0004C3.45372 13.0684 2.61362 11.7581 2.26457 10.2851C1.91551 8.81204 2.0783 7.26407 2.72615 5.8959C3.374 4.52772 4.4683 3.42084 5.82899 2.7574C7.18968 2.09396 8.73568 1.9135 10.2126 2.2457C11.6895 2.5779 13.0093 3.40298 13.9549 4.58516C14.9004 5.76734 15.4154 7.23619 15.415 8.75" fill="#0D0D0D"/>
</g>
<defs>
<clipPath id="clip0_1_21">
<rect width="20" height="20" fill="white"/>
</clipPath>
</defs>
</svg>
