<svg width="16" height="16" viewBox="0 0 16 16" fill="none" xmlns="http://www.w3.org/2000/svg">
<g clip-path="url(#clip0_1_81)">
<path d="M12.134 5.94399C12.262 5.86019 12.415 5.82301 12.5672 5.83873C12.7194 5.85444 12.8615 5.92208 12.9697 6.03027C13.0779 6.13847 13.1455 6.28061 13.1613 6.43281C13.177 6.58501 13.1398 6.73798 13.056 6.86599L12.971 6.97099L8.47099 11.471C8.40915 11.5329 8.33572 11.5819 8.2549 11.6154C8.17409 11.6489 8.08747 11.6661 7.99999 11.6661C7.91252 11.6661 7.8259 11.6489 7.74508 11.6154C7.66427 11.5819 7.59084 11.5329 7.52899 11.471L3.02899 6.97099L2.94399 6.86599C2.86019 6.73798 2.82301 6.58501 2.83873 6.43281C2.85444 6.28061 2.92208 6.13847 3.03027 6.03027C3.13847 5.92208 3.28061 5.85444 3.43281 5.83873C3.58501 5.82301 3.73798 5.86019 3.86599 5.94399L3.97099 6.02899L7.99999 10.06L12.03 6.02999L12.134 5.94399Z" fill="#8F8F8F"/>
</g>
<defs>
<clipPath id="clip0_1_81">
<rect width="16" height="16" fill="white"/>
</clipPath>
</defs>
</svg>
