<svg width="20" height="20" viewBox="0 0 20 20" fill="none" xmlns="http://www.w3.org/2000/svg">
<g clip-path="url(#clip0_1_51)">
<path d="M8.44795 8.21801C8.46443 8.16776 8.49636 8.12399 8.53919 8.09297C8.58202 8.06194 8.63356 8.04523 8.68644 8.04523C8.73933 8.04523 8.79087 8.06194 8.8337 8.09297C8.87653 8.12399 8.90846 8.16776 8.92495 8.21801L9.28795 9.30801C9.37435 9.56718 9.51991 9.80269 9.71309 9.99587C9.90627 10.189 10.1418 10.3346 10.4009 10.421L11.4909 10.784C11.7209 10.861 11.7209 11.185 11.4909 11.262L10.4009 11.625C10.1417 11.7115 9.90609 11.8572 9.71291 12.0506C9.51972 12.244 9.37422 12.4797 9.28795 12.739L8.92495 13.829C8.90846 13.8793 8.87653 13.923 8.8337 13.9541C8.79087 13.9851 8.73933 14.0018 8.68644 14.0018C8.63356 14.0018 8.58202 13.9851 8.53919 13.9541C8.49636 13.923 8.46443 13.8793 8.44795 13.829L8.08495 12.739C7.99867 12.4797 7.85317 12.244 7.65999 12.0506C7.4668 11.8572 7.23123 11.7115 6.97195 11.625L5.88195 11.262C5.83182 11.2453 5.78823 11.2132 5.75734 11.1703C5.72646 11.1274 5.70984 11.0759 5.70984 11.023C5.70984 10.9702 5.72646 10.9186 5.75734 10.8758C5.78823 10.8329 5.83182 10.8008 5.88195 10.784L6.97195 10.421C7.23112 10.3346 7.46662 10.189 7.6598 9.99587C7.85298 9.80269 7.99854 9.56718 8.08495 9.30801L8.44795 8.21801ZM12.0719 6.10801C12.0823 6.07671 12.1023 6.04948 12.1291 6.03018C12.1558 6.01088 12.188 6.00049 12.2209 6.00049C12.2539 6.00049 12.2861 6.01088 12.3128 6.03018C12.3396 6.04948 12.3596 6.07671 12.3699 6.10801L12.5979 6.78801C12.6517 6.95018 12.7425 7.0976 12.8631 7.21858C12.9838 7.33957 13.1309 7.43079 13.2929 7.48501L13.9749 7.71101C14.0061 7.72167 14.0332 7.74182 14.0524 7.76862C14.0715 7.79543 14.0818 7.82756 14.0818 7.86051C14.0818 7.89346 14.0715 7.92559 14.0524 7.9524C14.0332 7.9792 14.0061 7.99935 13.9749 8.01001L13.2929 8.23701C13.131 8.29114 12.9839 8.3822 12.8633 8.503C12.7427 8.6238 12.6518 8.77102 12.5979 8.93301L12.3699 9.61301C12.3596 9.64431 12.3396 9.67155 12.3128 9.69085C12.2861 9.71015 12.2539 9.72053 12.2209 9.72053C12.188 9.72053 12.1558 9.71015 12.1291 9.69085C12.1023 9.67155 12.0823 9.64431 12.0719 9.61301L11.8459 8.93301C11.7919 8.77081 11.7007 8.62345 11.5797 8.50264C11.4587 8.38182 11.3112 8.29087 11.1489 8.23701L10.4689 8.01001C10.4378 7.99935 10.4107 7.9792 10.3915 7.9524C10.3724 7.92559 10.3621 7.89346 10.3621 7.86051C10.3621 7.82756 10.3724 7.79543 10.3915 7.76862C10.4107 7.74182 10.4378 7.72167 10.4689 7.71101L11.1489 7.48501C11.4779 7.37501 11.7359 7.11701 11.8459 6.78801L12.0719 6.10801Z" fill="#0D0D0D"/>
<path fill-rule="evenodd" clip-rule="evenodd" d="M9.00106 1.81801C9.33496 1.65411 9.70403 1.57477 10.0758 1.58698C10.4476 1.59918 10.8106 1.70256 11.1331 1.88801L16.4591 4.96401L16.5871 5.04401C16.8956 5.25135 17.1486 5.53131 17.3236 5.85929C17.4987 6.18727 17.5905 6.55323 17.5911 6.92501V13.075C17.5911 13.834 17.2111 14.539 16.5871 14.957L16.4591 15.037L11.1331 18.112C10.8106 18.2975 10.4476 18.4008 10.0758 18.413C9.70403 18.4252 9.33496 18.3459 9.00106 18.182L8.86806 18.112L3.54106 15.036C3.19739 14.8369 2.91199 14.5511 2.71335 14.2072C2.51471 13.8632 2.40978 13.4732 2.40906 13.076V6.92401C2.40906 6.11501 2.84106 5.36801 3.54106 4.96401L8.86806 1.88801L9.00106 1.81801ZM10.4681 3.04001C10.344 2.96903 10.2054 2.92728 10.0628 2.91792C9.92018 2.90857 9.77732 2.93185 9.64506 2.98601L9.53306 3.04001L4.20606 6.11501C4.06431 6.19754 3.94663 6.31573 3.86471 6.45783C3.78278 6.59992 3.73946 6.76099 3.73906 6.92501V13.075C3.73906 13.409 3.91706 13.718 4.20606 13.885L9.53306 16.96L9.64506 17.015C9.91006 17.125 10.2151 17.106 10.4681 16.96L15.7941 13.885L15.8981 13.815C16.0108 13.7273 16.1021 13.6151 16.165 13.4869C16.2279 13.3587 16.2607 13.2178 16.2611 13.075V6.92501C16.2607 6.78219 16.2279 6.64132 16.165 6.5131C16.1021 6.38488 16.0108 6.27267 15.8981 6.18501L15.7941 6.11501L10.4681 3.04001Z" fill="#0D0D0D"/>
</g>
<defs>
<clipPath id="clip0_1_51">
<rect width="20" height="20" fill="white"/>
</clipPath>
</defs>
</svg>
