<svg width="20" height="20" viewBox="0 0 20 20" fill="none" xmlns="http://www.w3.org/2000/svg">
<g clip-path="url(#clip0_1_917)">
<g clip-path="url(#clip1_1_917)">
<mask id="mask0_1_917" style="mask-type:luminance" maskUnits="userSpaceOnUse" x="0" y="0" width="20" height="20">
<path d="M20 0H0V20H20V0Z" fill="white"/>
</mask>
<g mask="url(#mask0_1_917)">
<path d="M15.5 12V17M18 14.5H13" stroke="black" stroke-width="1.4" stroke-linecap="round" stroke-linejoin="round"/>
<path d="M10 16.5C9.18333 16.5 7.36667 16.5 6.55 16.5C5.21988 16.5 4.55481 16.5 4.04677 16.2411C3.59989 16.0134 3.23656 15.6501 3.00886 15.2032C2.75 14.6952 2.75 14.0301 2.75 12.7C2.75 11.4417 2.75 10.1833 2.75 8.925M2.75 8.925C2.75 8.38333 2.75 7.84167 2.75 7.3C2.75 5.96987 2.75 5.30481 3.00886 4.79677C3.23656 4.34989 3.59989 3.98656 4.04677 3.75886C4.55481 3.5 5.21988 3.5 6.55 3.5C6.78158 3.5 7.01316 3.5 7.24474 3.5C7.39647 3.5 7.47233 3.5 7.54537 3.5045C8.07693 3.53729 8.58205 3.74779 8.97958 4.10219C9.03421 4.15088 9.08762 4.20475 9.19444 4.3125C9.30127 4.42025 9.35468 4.47412 9.40931 4.52281C9.80684 4.87721 10.312 5.08771 10.8435 5.1205C10.9166 5.125 10.9924 5.125 11.1441 5.125C11.9127 5.125 12.6814 5.125 13.45 5.125C14.7801 5.125 15.4452 5.125 15.9532 5.38386C16.4001 5.61156 16.7634 5.97489 16.9911 6.42177C17.25 6.92981 17.25 7.59488 17.25 8.925H2.75Z" stroke="black" stroke-width="1.33" stroke-linecap="round" stroke-linejoin="round"/>
</g>
</g>
</g>
<defs>
<clipPath id="clip0_1_917">
<rect width="20" height="20" fill="white"/>
</clipPath>
<clipPath id="clip1_1_917">
<rect width="20" height="20" fill="white"/>
</clipPath>
</defs>
</svg>
