<svg width="20" height="20" viewBox="0 0 20 20" fill="none" xmlns="http://www.w3.org/2000/svg">
<g clip-path="url(#clip0_1_1522)">
<g clip-path="url(#clip1_1_1522)">
<path d="M2 12.6667L4.74311 9.92356C5.07649 9.59027 5.5286 9.40305 6 9.40305C6.4714 9.40305 6.92351 9.59027 7.25689 9.92356L15.3333 18M16.2222 2H3.77778C2.79594 2 2 2.79594 2 3.77778V16.2222C2 17.2041 2.79594 18 3.77778 18H16.2222C17.2041 18 18 17.2041 18 16.2222V3.77778C18 2.79594 17.2041 2 16.2222 2ZM10.8889 7.33333C10.8889 8.31517 11.6848 9.11111 12.6667 9.11111C13.6485 9.11111 14.4444 8.31517 14.4444 7.33333C14.4444 6.35149 13.6485 5.55556 12.6667 5.55556C11.6848 5.55556 10.8889 6.35149 10.8889 7.33333Z" stroke="black" stroke-width="1.56" stroke-linecap="round" stroke-linejoin="round"/>
</g>
</g>
<defs>
<clipPath id="clip0_1_1522">
<rect width="20" height="20" fill="white"/>
</clipPath>
<clipPath id="clip1_1_1522">
<rect width="20" height="20" fill="white"/>
</clipPath>
</defs>
</svg>
