<svg width="20" height="20" viewBox="0 0 20 20" fill="none" xmlns="http://www.w3.org/2000/svg">
<g clip-path="url(#clip0_1_63)">
<path d="M2.66895 11.333V8.66697C2.66895 7.74497 2.66895 7.01197 2.71695 6.42297C2.76495 5.82597 2.86695 5.31697 3.10395 4.85197L3.25895 4.57597C3.64424 3.94796 4.19551 3.43856 4.85195 3.10397L5.02895 3.02097C5.44695 2.84197 5.90095 2.75797 6.42395 2.71597C7.01295 2.66797 7.74395 2.66797 8.66695 2.66797H9.16695C9.34332 2.66797 9.51246 2.73804 9.63717 2.86275C9.76188 2.98746 9.83195 3.15661 9.83195 3.33297C9.83195 3.50934 9.76188 3.67849 9.63717 3.8032C9.51246 3.92791 9.34332 3.99797 9.16695 3.99797H8.66695C7.72295 3.99797 7.05395 3.99797 6.53195 4.04097C6.14595 4.07297 5.87195 4.12597 5.65595 4.20297L5.45595 4.28897C5.0176 4.51206 4.6494 4.85189 4.39195 5.27097L4.28995 5.45497C4.16395 5.70197 4.08395 6.01697 4.04195 6.53097C3.99895 7.05398 3.99895 7.72297 3.99895 8.66697V11.333C3.99895 12.277 3.99895 12.946 4.04195 13.469C4.08395 13.983 4.16395 14.298 4.28995 14.545L4.39195 14.729C4.64895 15.147 5.01595 15.487 5.45595 15.711L5.65595 15.797C5.87295 15.874 6.14595 15.927 6.53195 15.958C7.05395 16.001 7.72195 16.002 8.66695 16.002H11.3339C12.2779 16.002 12.9459 16.001 13.4689 15.958C13.9829 15.916 14.2979 15.837 14.5449 15.711L14.7289 15.607C15.1469 15.351 15.4879 14.984 15.7119 14.545L15.7979 14.345C15.8749 14.128 15.9279 13.855 15.9579 13.469C16.0009 12.946 16.0019 12.277 16.0019 11.333V10.833C16.0019 10.6566 16.072 10.4875 16.1967 10.3627C16.3214 10.238 16.4906 10.168 16.6669 10.168C16.8433 10.168 17.0125 10.238 17.1372 10.3627C17.2619 10.4875 17.3319 10.6566 17.3319 10.833V11.333C17.3319 12.255 17.3329 12.988 17.2849 13.577C17.2419 14.099 17.1579 14.554 16.9789 14.972L16.8959 15.148C16.5616 15.8043 16.0526 16.3555 15.4249 16.741L15.1489 16.895C14.6829 17.133 14.1739 17.235 13.5769 17.285C12.9869 17.332 12.2559 17.332 11.3339 17.332H8.66695C7.74395 17.332 7.01295 17.332 6.42395 17.284C5.90095 17.241 5.44695 17.158 5.02895 16.979L4.85195 16.895C4.19564 16.5607 3.64439 16.0516 3.25895 15.424L3.10395 15.148C2.86695 14.683 2.76495 14.174 2.71695 13.578C2.66795 12.988 2.66895 12.256 2.66895 11.333ZM13.4649 3.11297C13.9318 2.73254 14.5232 2.53899 15.1246 2.56984C15.726 2.6007 16.2945 2.85376 16.7199 3.27997L16.8869 3.46497C17.6139 4.35697 17.6139 5.64497 16.8869 6.53597L16.7189 6.72097L11.6729 11.769C11.1388 12.3027 10.4645 12.6744 9.72795 12.841L9.41095 12.899L7.59395 13.159C7.49171 13.1735 7.38749 13.1641 7.28954 13.1314C7.1916 13.0987 7.10261 13.0436 7.02964 12.9705C6.95667 12.8975 6.90172 12.8084 6.86914 12.7104C6.83656 12.6124 6.82725 12.5082 6.84195 12.406L7.10195 10.59L7.15995 10.271C7.3267 9.53481 7.69835 8.86085 8.23195 8.32697L13.2799 3.27997L13.4649 3.11297ZM15.7789 4.22097C15.5859 4.02789 15.3282 3.91324 15.0556 3.8992C14.7829 3.88517 14.5148 3.97274 14.3029 4.14497L14.2189 4.22097L9.17295 9.26897C8.81688 9.62484 8.56866 10.0741 8.45695 10.565L8.41695 10.777L8.28295 11.716L9.22295 11.582L9.43395 11.543C9.92552 11.4316 10.3755 11.1834 10.7319 10.827L15.7799 5.77997L15.8559 5.69597C16.1859 5.29197 16.1859 4.70797 15.8559 4.30397L15.7789 4.22097Z" fill="#0D0D0D"/>
</g>
<defs>
<clipPath id="clip0_1_63">
<rect width="20" height="20" fill="white"/>
</clipPath>
</defs>
</svg>
