<svg width="20" height="20" viewBox="0 0 20 20" fill="none" xmlns="http://www.w3.org/2000/svg">
<g clip-path="url(#clip0_1_75)">
<path d="M6.83496 3.99998C6.38396 4.00398 6.01496 4.01198 5.69796 4.03798C5.31196 4.06998 5.03896 4.12298 4.82196 4.19998L4.62196 4.28598C4.18196 4.50998 3.81496 4.84998 3.55896 5.26798L3.45596 5.45198C3.32996 5.69898 3.24996 6.01398 3.20796 6.52798C3.16496 7.05098 3.16496 7.71798 3.16496 8.66298V11.327C3.16496 12.271 3.16496 12.939 3.20796 13.462C3.24996 13.977 3.32996 14.291 3.45596 14.538L3.55896 14.722C3.81496 15.14 4.18296 15.48 4.62196 15.704L4.82196 15.79C5.03896 15.867 5.31196 15.92 5.69796 15.952C6.01396 15.978 6.38296 15.986 6.83396 15.99L6.83496 3.99998ZM18.165 11.327C18.165 12.249 18.165 12.981 18.117 13.57C18.074 14.092 17.992 14.547 17.812 14.965L17.73 15.142C17.3951 15.7985 16.8853 16.3498 16.257 16.735L15.981 16.89C15.516 17.127 15.007 17.228 14.411 17.277C13.821 17.325 13.089 17.325 12.167 17.325H7.83296C6.91096 17.325 6.17896 17.325 5.58996 17.277C5.06796 17.235 4.61296 17.151 4.19496 16.972L4.01896 16.89C3.36203 16.5553 2.81039 16.0455 2.42496 15.417L2.27096 15.142C2.03296 14.676 1.93096 14.167 1.88296 13.57C1.83496 12.981 1.83496 12.25 1.83496 11.327V8.66298C1.83496 7.74098 1.83496 7.00898 1.88296 6.41998C1.93196 5.82298 2.03296 5.31398 2.27096 4.84898L2.42496 4.57298C2.81053 3.94483 3.36216 3.43542 4.01896 3.10098L4.19496 3.01798C4.61296 2.83798 5.06796 2.75498 5.58996 2.71298C6.17896 2.66498 6.90996 2.66498 7.83296 2.66498H12.167C13.089 2.66498 13.821 2.66498 14.41 2.71298C15.007 2.76198 15.516 2.86298 15.981 3.10098L16.257 3.25498C16.8855 3.6404 17.3952 4.19205 17.73 4.84898L17.812 5.02498C17.992 5.44298 18.074 5.89798 18.117 6.41998C18.165 7.00898 18.165 7.73998 18.165 8.66298V11.327ZM8.16496 15.995H12.167C13.111 15.995 13.779 15.995 14.302 15.952C14.816 15.91 15.131 15.83 15.378 15.704L15.562 15.601C15.98 15.345 16.32 14.977 16.544 14.538L16.63 14.338C16.707 14.121 16.76 13.848 16.792 13.462C16.835 12.939 16.835 12.272 16.835 11.327V8.66298C16.835 7.71898 16.835 7.05098 16.792 6.52798C16.76 6.14198 16.707 5.86898 16.63 5.65198L16.544 5.45198C16.3207 5.014 15.9809 4.64615 15.562 4.38898L15.378 4.28598C15.131 4.15998 14.816 4.07998 14.302 4.03798C13.779 3.99498 13.112 3.99498 12.167 3.99498H8.16396L8.16496 3.99998V15.995Z" fill="#8F8F8F"/>
</g>
<defs>
<clipPath id="clip0_1_75">
<rect width="20" height="20" fill="white"/>
</clipPath>
</defs>
</svg>
