<svg width="20" height="20" viewBox="0 0 20 20" fill="none" xmlns="http://www.w3.org/2000/svg">
<g clip-path="url(#clip0_1_55)">
<path d="M10.3231 1.62701C11.1511 1.62701 11.9181 2.06601 12.3371 2.78101L13.1591 4.18101L13.2121 4.25101C13.2741 4.31101 13.3571 4.34701 13.4451 4.34701L15.0601 4.36001L15.2141 4.36701C15.9821 4.42401 16.6771 4.85701 17.0641 5.53101L17.3931 6.10201L17.4661 6.23801C17.7811 6.88001 17.7841 7.63301 17.4741 8.27801L17.4031 8.41401L16.6001 9.83601C16.5722 9.88637 16.5576 9.94297 16.5576 10.0005C16.5576 10.0581 16.5722 10.1147 16.6001 10.165L17.4031 11.585L17.4741 11.722C17.7841 12.367 17.7821 13.12 17.4661 13.762L17.3931 13.898L17.0651 14.469C16.8748 14.7991 16.6069 15.0778 16.2845 15.2809C15.9621 15.4839 15.595 15.6051 15.2151 15.634L15.0601 15.639L13.4451 15.653C13.3578 15.6543 13.2744 15.689 13.2121 15.75L13.1591 15.818L12.3371 17.219C12.1309 17.5701 11.8366 17.8613 11.4834 18.0639C11.1302 18.2665 10.7302 18.3734 10.3231 18.374H9.67606C8.89906 18.374 8.17706 17.987 7.74506 17.35L7.66306 17.22L6.84106 15.818C6.79643 15.7433 6.72485 15.6885 6.64106 15.665L6.55506 15.653L4.94006 15.639C4.559 15.6356 4.18454 15.5391 3.84924 15.3581C3.51393 15.177 3.22792 14.9168 3.01606 14.6L2.93506 14.47L2.60706 13.898C2.40532 13.5465 2.29833 13.1486 2.29658 12.7433C2.29482 12.338 2.39836 11.9393 2.59706 11.586L3.39906 10.165L3.43206 10.085C3.44646 10.0293 3.44646 9.97077 3.43206 9.91501L3.39906 9.83501L2.59706 8.41401C2.39741 8.06109 2.29331 7.66217 2.29507 7.25669C2.29682 6.8512 2.40436 6.4532 2.60706 6.10201L2.93506 5.53101L3.01606 5.40101C3.22769 5.08389 3.5136 4.82327 3.84892 4.64184C4.18425 4.46041 4.55882 4.36366 4.94006 4.36001L6.55506 4.34701L6.64106 4.33601C6.72519 4.312 6.79682 4.25649 6.84106 4.18101L7.66306 2.78101L7.74506 2.65101C7.95928 2.33606 8.24714 2.07815 8.58365 1.8997C8.92017 1.72125 9.29516 1.62765 9.67606 1.62701H10.3231ZM9.67606 2.95701C9.36406 2.95701 9.07306 3.10101 8.88406 3.34301L8.81006 3.45301L7.98906 4.85401C7.72906 5.29701 7.28306 5.59101 6.78306 5.66101L6.56606 5.67701L4.95106 5.69001C4.63906 5.69301 4.34806 5.84001 4.16106 6.08401L4.08706 6.19401L3.75906 6.76501C3.67161 6.91609 3.62523 7.08742 3.62452 7.26198C3.62382 7.43654 3.66883 7.60824 3.75506 7.76001L4.55706 9.18101L4.65206 9.37701C4.81306 9.77601 4.81206 10.223 4.65206 10.623L4.55706 10.819L3.75506 12.239C3.58106 12.549 3.58206 12.927 3.75906 13.235L4.08706 13.805L4.16206 13.915C4.34806 14.16 4.63806 14.307 4.95106 14.309L6.56606 14.323L6.78306 14.338C7.28306 14.408 7.72906 14.704 7.98906 15.146L8.81006 16.546L8.88406 16.656C9.07306 16.898 9.36406 17.044 9.67606 17.044H10.3231C10.6791 17.044 11.0091 16.854 11.1901 16.547L12.0111 15.147L12.1331 14.966C12.4431 14.566 12.9211 14.327 13.4341 14.323L15.0491 14.309L15.1811 14.299C15.4851 14.257 15.7571 14.076 15.9131 13.805L16.2411 13.235L16.2981 13.117C16.3981 12.874 16.4001 12.602 16.3021 12.359L16.2451 12.239L15.4421 10.819C15.3014 10.569 15.2274 10.2869 15.2274 10C15.2274 9.71311 15.3014 9.43105 15.4421 9.18101L16.2451 7.76101L16.3021 7.64101C16.4003 7.39761 16.3988 7.12537 16.2981 6.88301L16.2411 6.76501L15.9131 6.19401C15.837 6.06113 15.7315 5.94748 15.6045 5.86183C15.4776 5.77619 15.3327 5.72082 15.1811 5.70001L15.0491 5.69001L13.4341 5.67701C13.1831 5.67459 12.9358 5.6156 12.7108 5.50445C12.4857 5.3933 12.2886 5.23285 12.1341 5.03501L12.0111 4.85501L11.1901 3.45401C11.1018 3.30241 10.9753 3.17668 10.8231 3.08945C10.6709 3.00221 10.4985 2.95654 10.3231 2.95701H9.67606ZM11.5861 10C11.5861 9.57925 11.4189 9.17572 11.1214 8.87819C10.8239 8.58066 10.4203 8.41351 9.99956 8.41351C9.57879 8.41351 9.17526 8.58066 8.87774 8.87819C8.58021 9.17572 8.41306 9.57925 8.41306 10C8.41306 10.4206 8.58016 10.8241 8.87759 11.1215C9.17502 11.4189 9.57843 11.586 9.99906 11.586C10.4197 11.586 10.8231 11.4189 11.1205 11.1215C11.418 10.8241 11.5851 10.4206 11.5851 10M12.9141 10C12.9141 10.7731 12.6069 11.5146 12.0603 12.0612C11.5136 12.6079 10.7722 12.915 9.99906 12.915C9.22595 12.915 8.48451 12.6079 7.93784 12.0612C7.39118 11.5146 7.08406 10.7731 7.08406 10C7.08406 9.22691 7.39118 8.48547 7.93784 7.9388C8.48451 7.39213 9.22595 7.08501 9.99906 7.08501C10.7722 7.08501 11.5136 7.39213 12.0603 7.9388C12.6069 8.48547 12.9141 9.22691 12.9141 10Z" fill="#0D0D0D"/>
</g>
<defs>
<clipPath id="clip0_1_55">
<rect width="20" height="20" fill="white"/>
</clipPath>
</defs>
</svg>
