<svg width="20" height="20" viewBox="0 0 20 20" fill="none" xmlns="http://www.w3.org/2000/svg">
<path d="M8.67002 3.12751C9.54852 2.9575 10.4515 2.9575 11.33 3.12751M11.33 16.8722C10.4515 17.0423 9.54852 17.0423 8.67002 16.8722M13.9262 4.20407C14.6693 4.70751 15.3085 5.34914 15.8092 6.09401M3.12751 11.3298C2.9575 10.4513 2.9575 9.54841 3.12751 8.66992M15.7959 13.9267C15.2925 14.6697 14.6508 15.309 13.9059 15.8097M16.8725 8.66992C17.0425 9.54841 17.0425 10.4513 16.8725 11.3298M4.20479 6.07371C4.70824 5.3307 5.34988 4.69145 6.09476 4.19077M5.91417 16.3816L3.88 16.9765C3.76468 17.0072 3.64346 17.0078 3.52782 16.9784C3.41219 16.949 3.30599 16.8906 3.2193 16.8086C3.13262 16.7266 3.06833 16.6238 3.03254 16.51C2.99675 16.3962 2.99065 16.2751 3.01481 16.1583L3.6903 14.0723" stroke="black" stroke-width="1.4" stroke-linecap="round" stroke-linejoin="round"/>
</svg>
