<svg width="20" height="20" viewBox="0 0 20 20" fill="none" xmlns="http://www.w3.org/2000/svg">
<g clip-path="url(#clip0_1_42)">
<path d="M7.94597 14.028C7.94597 13.5045 7.73799 13.0024 7.3678 12.6322C6.9976 12.262 6.49551 12.054 5.97197 12.054C5.44843 12.054 4.94634 12.262 4.57614 12.6322C4.20594 13.0024 3.99797 13.5045 3.99797 14.028C3.99797 14.5515 4.20594 15.0536 4.57614 15.4238C4.94634 15.794 5.44843 16.002 5.97197 16.002C6.49551 16.002 6.9976 15.794 7.3678 15.4238C7.73799 15.0536 7.94597 14.5515 7.94597 14.028ZM16.001 14.028C16.0069 13.7651 15.9602 13.5037 15.8637 13.259C15.7672 13.0144 15.6228 12.7916 15.4389 12.6035C15.2551 12.4155 15.0355 12.2661 14.7931 12.1641C14.5508 12.0621 14.2904 12.0096 14.0275 12.0096C13.7645 12.0096 13.5042 12.0621 13.2618 12.1641C13.0194 12.2661 12.7999 12.4155 12.616 12.6035C12.4322 12.7916 12.2878 13.0144 12.1912 13.259C12.0947 13.5037 12.048 13.7651 12.054 14.028C12.0656 14.5437 12.2786 15.0344 12.6474 15.395C13.0163 15.7556 13.5116 15.9576 14.0275 15.9576C14.5433 15.9576 15.0387 15.7556 15.4075 15.395C15.7763 15.0344 15.9894 14.5437 16.001 14.028ZM7.94597 5.972C7.94597 5.44846 7.73799 4.94637 7.3678 4.57617C6.9976 4.20597 6.49551 3.998 5.97197 3.998C5.44843 3.998 4.94634 4.20597 4.57614 4.57617C4.20594 4.94637 3.99797 5.44846 3.99797 5.972C3.99797 6.49554 4.20594 6.99763 4.57614 7.36783C4.94634 7.73803 5.44843 7.946 5.97197 7.946C6.49551 7.946 6.9976 7.73803 7.3678 7.36783C7.73799 6.99763 7.94597 6.49554 7.94597 5.972ZM16.001 5.972C16.0069 5.7091 15.9602 5.44766 15.8637 5.20305C15.7672 4.95843 15.6228 4.73557 15.4389 4.54754C15.2551 4.35951 15.0355 4.21011 14.7931 4.10811C14.5508 4.00611 14.2904 3.95357 14.0275 3.95357C13.7645 3.95357 13.5042 4.00611 13.2618 4.10811C13.0194 4.21011 12.7999 4.35951 12.616 4.54754C12.4322 4.73557 12.2878 4.95843 12.1912 5.20305C12.0947 5.44766 12.048 5.7091 12.054 5.972C12.0656 6.48771 12.2786 6.97839 12.6474 7.33902C13.0163 7.69965 13.5116 7.90157 14.0275 7.90157C14.5433 7.90157 15.0387 7.69965 15.4075 7.33902C15.7763 6.97839 15.9894 6.48771 16.001 5.972ZM9.27597 14.028C9.27597 14.9043 8.92787 15.7447 8.30825 16.3643C7.68863 16.9839 6.84824 17.332 5.97197 17.332C5.09569 17.332 4.25531 16.9839 3.63569 16.3643C3.01607 15.7447 2.66797 14.9043 2.66797 14.028C2.66797 13.1517 3.01607 12.3113 3.63569 11.6917C4.25531 11.0721 5.09569 10.724 5.97197 10.724C6.84824 10.724 7.68863 11.0721 8.30825 11.6917C8.92787 12.3113 9.27597 13.1517 9.27597 14.028ZM17.331 14.028C17.3386 14.4667 17.2588 14.9024 17.0962 15.3099C16.9336 15.7174 16.6915 16.0884 16.384 16.4013C16.0765 16.7143 15.7097 16.9628 15.3051 17.1324C14.9005 17.3021 14.4662 17.3895 14.0275 17.3895C13.5887 17.3895 13.1544 17.3021 12.7498 17.1324C12.3452 16.9628 11.9785 16.7143 11.671 16.4013C11.3634 16.0884 11.1213 15.7174 10.9587 15.3099C10.7961 14.9024 10.7163 14.4667 10.724 14.028C10.739 13.1618 11.0937 12.3362 11.7116 11.729C12.3295 11.1217 13.1611 10.7815 14.0275 10.7815C14.8938 10.7815 15.7255 11.1217 16.3433 11.729C16.9612 12.3362 17.3159 13.1618 17.331 14.028ZM9.27597 5.972C9.27597 6.84827 8.92787 7.68866 8.30825 8.30828C7.68863 8.9279 6.84824 9.276 5.97197 9.276C5.09569 9.276 4.25531 8.9279 3.63569 8.30828C3.01607 7.68866 2.66797 6.84827 2.66797 5.972C2.66797 5.09572 3.01607 4.25534 3.63569 3.63572C4.25531 3.0161 5.09569 2.668 5.97197 2.668C6.84824 2.668 7.68863 3.0161 8.30825 3.63572C8.92787 4.25534 9.27597 5.09572 9.27597 5.972ZM17.331 5.972C17.3386 6.41066 17.2588 6.84644 17.0962 7.25393C16.9336 7.66141 16.6915 8.03244 16.384 8.34535C16.0765 8.65826 15.7097 8.90679 15.3051 9.07645C14.9005 9.2461 14.4662 9.33348 14.0275 9.33348C13.5887 9.33348 13.1544 9.2461 12.7498 9.07645C12.3452 8.90679 11.9785 8.65826 11.671 8.34535C11.3634 8.03244 11.1213 7.66141 10.9587 7.25393C10.7961 6.84644 10.7163 6.41066 10.724 5.972C10.739 5.10581 11.0937 4.28019 11.7116 3.67296C12.3295 3.06573 13.1611 2.72548 14.0275 2.72548C14.8938 2.72548 15.7255 3.06573 16.3433 3.67296C16.9612 4.28019 17.3159 5.10581 17.331 5.972Z" fill="#0D0D0D"/>
</g>
<defs>
<clipPath id="clip0_1_42">
<rect width="20" height="20" fill="white"/>
</clipPath>
</defs>
</svg>
