<svg width="20" height="20" viewBox="0 0 20 20" fill="none" xmlns="http://www.w3.org/2000/svg">
<g clip-path="url(#clip0_1_89)">
<path d="M15.78 10.196C15.8638 10.2208 15.9419 10.2618 16.0099 10.3168C16.0778 10.3718 16.1343 10.4396 16.176 10.5164C16.2177 10.5932 16.2438 10.6775 16.2529 10.7644C16.262 10.8513 16.2539 10.9392 16.229 11.023L16.149 11.273C15.7462 12.4472 15.0157 13.4815 14.0437 14.2536C13.0717 15.0257 11.8989 15.5033 10.664 15.63L10.665 16.835H12.083L12.217 16.849C12.3666 16.8802 12.5009 16.9619 12.5973 17.0805C12.6937 17.199 12.7463 17.3472 12.7463 17.5C12.7463 17.6528 12.6937 17.8009 12.5973 17.9195C12.5009 18.038 12.3666 18.1198 12.217 18.151L12.083 18.165H7.91603C7.73966 18.165 7.57051 18.0949 7.4458 17.9702C7.32109 17.8455 7.25103 17.6764 7.25103 17.5C7.25103 17.3236 7.32109 17.1545 7.4458 17.0298C7.57051 16.9051 7.73966 16.835 7.91603 16.835H9.33603L9.33403 15.63C8.09934 15.5031 6.92679 15.0254 5.95498 14.2533C4.98317 13.4812 4.25274 12.447 3.85003 11.273L3.77003 11.023L3.74403 10.891C3.73021 10.738 3.76979 10.5849 3.85603 10.4578C3.94227 10.3307 4.06986 10.2374 4.21712 10.1937C4.36438 10.15 4.52223 10.1586 4.66386 10.2181C4.80548 10.2776 4.92215 10.3842 4.99403 10.52L5.04503 10.644L5.10903 10.842C5.46439 11.8779 6.13953 12.7742 7.0371 13.4016C7.93467 14.0291 9.00831 14.3554 10.1032 14.3333C11.1982 14.3113 12.2578 13.9422 13.1294 13.2791C14.0011 12.616 14.6396 11.6933 14.953 10.644L15.005 10.52C15.0771 10.3847 15.1938 10.2785 15.3352 10.2195C15.4766 10.1604 15.6342 10.1521 15.781 10.196M12.252 5.41699C12.2583 5.11732 12.2048 4.81941 12.0945 4.54072C11.9842 4.26203 11.8193 4.00816 11.6096 3.794C11.3999 3.57984 11.1496 3.40969 10.8733 3.29353C10.597 3.17737 10.3003 3.11754 10.0005 3.11754C9.7008 3.11754 9.40408 3.17737 9.12778 3.29353C8.85147 3.40969 8.60113 3.57984 8.39144 3.794C8.18174 4.00816 8.0169 4.26203 7.90659 4.54072C7.79628 4.81941 7.74271 5.11732 7.74903 5.41699V9.16699C7.76144 9.75591 8.0041 10.3165 8.42499 10.7286C8.84588 11.1407 9.41148 11.3715 10.0005 11.3715C10.5896 11.3715 11.1552 11.1407 11.5761 10.7286C11.997 10.3165 12.2396 9.75591 12.252 9.16699V5.41699ZM13.582 9.16699C13.582 10.1169 13.2047 11.0278 12.533 11.6995C11.8614 12.3712 10.9504 12.7485 10.0005 12.7485C9.05066 12.7485 8.13969 12.3712 7.46803 11.6995C6.79636 11.0278 6.41903 10.1169 6.41903 9.16699V5.41699C6.43473 4.47748 6.81897 3.58176 7.48892 2.92291C8.15887 2.26406 9.06089 1.89484 10.0005 1.89484C10.9402 1.89484 11.8422 2.26406 12.5121 2.92291C13.1821 3.58176 13.5663 4.47748 13.582 5.41699V9.16699Z" fill="#0D0D0D"/>
</g>
<defs>
<clipPath id="clip0_1_89">
<rect width="20" height="20" fill="white"/>
</clipPath>
</defs>
</svg>
