<svg width="16" height="16" viewBox="0 0 16 16" fill="none" xmlns="http://www.w3.org/2000/svg">
<g clip-path="url(#clip0_1_31)">
<path d="M13.268 8C13.2682 7.12094 13.0484 6.2558 12.6287 5.48342C12.2089 4.71104 11.6026 4.05597 10.8649 3.57791C10.1272 3.09985 9.28158 2.81399 8.40513 2.74638C7.52867 2.67877 6.64923 2.83156 5.84694 3.19084C5.04465 3.55011 4.34502 4.10444 3.81179 4.80331C3.27857 5.50218 2.92872 6.32338 2.7941 7.19207C2.65949 8.06076 2.7444 8.94933 3.04109 9.77681C3.33779 10.6043 3.83684 11.3444 4.49277 11.9296C4.91729 11.4096 5.45231 10.9906 6.05896 10.7032C6.66562 10.4158 7.32867 10.2671 7.99997 10.268C9.41357 10.268 10.676 10.916 11.5064 11.9296C12.0608 11.4361 12.5045 10.8308 12.8081 10.1535C13.1117 9.47619 13.2685 8.74225 13.268 8ZM7.99997 11.332C7.49672 11.3312 6.99937 11.4403 6.54268 11.6518C6.08599 11.8632 5.68098 12.1718 5.35597 12.556C6.13357 13.008 7.03597 13.268 7.99997 13.268C8.92829 13.2689 9.84019 13.0232 10.6424 12.556C10.3175 12.172 9.91278 11.8635 9.45638 11.6521C8.99999 11.4407 8.50295 11.3314 7.99997 11.332ZM9.46797 6.8C9.46797 6.41066 9.3133 6.03727 9.038 5.76197C8.7627 5.48666 8.38931 5.332 7.99997 5.332C7.61063 5.332 7.23724 5.48666 6.96194 5.76197C6.68663 6.03727 6.53197 6.41066 6.53197 6.8C6.53197 7.18934 6.68663 7.56273 6.96194 7.83803C7.23724 8.11334 7.61063 8.268 7.99997 8.268C8.38931 8.268 8.7627 8.11334 9.038 7.83803C9.3133 7.56273 9.46797 7.18934 9.46797 6.8ZM14.332 8C14.332 8.83153 14.1682 9.65492 13.85 10.4232C13.5318 11.1914 13.0653 11.8894 12.4774 12.4774C11.8894 13.0654 11.1914 13.5318 10.4231 13.85C9.65489 14.1682 8.8315 14.332 7.99997 14.332C7.16844 14.332 6.34505 14.1682 5.57682 13.85C4.80858 13.5318 4.11055 13.0654 3.52257 12.4774C2.93459 11.8894 2.46818 11.1914 2.14996 10.4232C1.83175 9.65492 1.66797 8.83153 1.66797 8C1.66797 6.32065 2.33509 4.71008 3.52257 3.5226C4.71005 2.33512 6.32062 1.668 7.99997 1.668C9.67932 1.668 11.2899 2.33512 12.4774 3.5226C13.6648 4.71008 14.332 6.32065 14.332 8ZM10.532 6.8C10.532 7.47153 10.2652 8.11555 9.79036 8.59039C9.31552 9.06524 8.6715 9.332 7.99997 9.332C7.32844 9.332 6.68442 9.06524 6.20957 8.59039C5.73473 8.11555 5.46797 7.47153 5.46797 6.8C5.46797 6.12847 5.73473 5.48445 6.20957 5.00961C6.68442 4.53476 7.32844 4.268 7.99997 4.268C8.6715 4.268 9.31552 4.53476 9.79036 5.00961C10.2652 5.48445 10.532 6.12847 10.532 6.8Z" fill="#0D0D0D"/>
</g>
<defs>
<clipPath id="clip0_1_31">
<rect width="16" height="16" fill="white"/>
</clipPath>
</defs>
</svg>
