<svg width="20" height="20" viewBox="0 0 20 20" fill="none" xmlns="http://www.w3.org/2000/svg">
<g clip-path="url(#clip0_1_823)">
<g clip-path="url(#clip1_1_823)">
<mask id="mask0_1_823" style="mask-type:luminance" maskUnits="userSpaceOnUse" x="0" y="0" width="20" height="20">
<path d="M20 0H0V20H20V0Z" fill="white"/>
</mask>
<g mask="url(#mask0_1_823)">
<path d="M17.25 9.5C17.25 9.30833 17.25 9.11667 17.25 8.925C17.25 7.59488 17.25 6.92981 16.9911 6.42177C16.7634 5.97489 16.4001 5.61156 15.9532 5.38386C15.4452 5.125 14.7801 5.125 13.45 5.125C12.6814 5.125 11.9127 5.125 11.1441 5.125C10.9924 5.125 10.9166 5.125 10.8435 5.1205C10.312 5.08771 9.80684 4.87721 9.40931 4.52281C9.35468 4.47412 9.30127 4.42025 9.19444 4.3125C9.08762 4.20475 9.03421 4.15088 8.97958 4.10219C8.58205 3.74779 8.07693 3.53729 7.54537 3.5045C7.47233 3.5 7.39647 3.5 7.24474 3.5C7.01316 3.5 6.78158 3.5 6.55 3.5C5.21988 3.5 4.55481 3.5 4.04677 3.75886C3.59989 3.98656 3.23656 4.34989 3.00886 4.79677C2.75 5.30481 2.75 5.96987 2.75 7.3C2.75 9.1 2.75 10.9 2.75 12.7C2.75 14.0301 2.75 14.6952 3.00886 15.2032C3.23656 15.6501 3.59989 16.0134 4.04677 16.2411C4.55481 16.5 5.21988 16.5 6.55 16.5C7.36667 16.5 8.18333 16.5 9 16.5" stroke="black" stroke-width="1.33" stroke-linecap="round"/>
<path d="M3.342 8.91382C3.13478 8.91382 3.03117 8.91382 2.95202 8.95304C2.8824 8.98754 2.8258 9.0426 2.79033 9.11031C2.75 9.18728 2.75 9.28805 2.75 9.48959C2.75 10.5944 2.75 11.6993 2.75 12.8041C2.75 14.0978 2.75 14.7446 3.00886 15.2387C3.23656 15.6733 3.59989 16.0268 4.04677 16.2482C4.55481 16.4999 5.21988 16.4999 6.55 16.4999C8.85 16.4999 11.15 16.4999 13.45 16.4999C14.7801 16.4999 15.4452 16.4999 15.9532 16.2482C16.4001 16.0268 16.7634 15.6733 16.9911 15.2387C17.25 14.7446 17.25 14.0978 17.25 12.8041C17.25 11.6993 17.25 10.5944 17.25 9.48959C17.25 9.28805 17.25 9.18728 17.2097 9.11031C17.1742 9.0426 17.1176 8.98754 17.048 8.95304C16.9688 8.91382 16.8652 8.91382 16.658 8.91382C12.2193 8.91382 7.78067 8.91382 3.342 8.91382Z" stroke="black" stroke-width="1.33" stroke-linecap="round"/>
</g>
</g>
</g>
<defs>
<clipPath id="clip0_1_823">
<rect width="20" height="20" fill="white"/>
</clipPath>
<clipPath id="clip1_1_823">
<rect width="20" height="20" fill="white"/>
</clipPath>
</defs>
</svg>
