<svg width="20" height="20" viewBox="0 0 20 20" fill="none" xmlns="http://www.w3.org/2000/svg">
<g clip-path="url(#clip0_1_46)">
<path d="M11.517 11.992C11.517 11.7927 11.4777 11.5953 11.4014 11.4111C11.3252 11.2269 11.2133 11.0596 11.0724 10.9186C10.9314 10.7777 10.7641 10.6658 10.5799 10.5896C10.3957 10.5133 10.1983 10.474 9.999 10.474C9.79965 10.474 9.60226 10.5133 9.41809 10.5896C9.23391 10.6658 9.06657 10.7777 8.92561 10.9186C8.78465 11.0596 8.67284 11.2269 8.59655 11.4111C8.52026 11.5953 8.481 11.7927 8.481 11.992C8.481 12.3946 8.64093 12.7807 8.92561 13.0654C9.21029 13.3501 9.5964 13.51 9.999 13.51C10.4016 13.51 10.7877 13.3501 11.0724 13.0654C11.3571 12.7807 11.517 12.3946 11.517 11.992ZM3.807 8.71001C3.287 8.92701 3.02 9.50601 3.194 10.042L3.527 11.065L3.565 11.165C3.779 11.654 4.324 11.919 4.847 11.772L7.303 11.08C7.45127 10.6416 7.70417 10.246 8.0398 9.92742C8.37542 9.60881 8.78366 9.37682 9.22914 9.25154C9.67463 9.12626 10.1439 9.11145 10.5964 9.20842C11.0489 9.30538 11.471 9.51119 11.826 9.80801L13.093 9.45101L13.028 9.28101L11.768 5.40101L3.807 8.71001ZM14.597 3.05801L14.468 3.08601L13.638 3.35601C13.5029 3.39977 13.3778 3.46973 13.2698 3.56189C13.1618 3.65405 13.073 3.76661 13.0086 3.89311C12.9441 4.01961 12.9052 4.15758 12.8942 4.29913C12.8831 4.44067 12.9 4.58302 12.944 4.71801L14.294 8.86901L14.332 8.97301C14.554 9.47401 15.123 9.73701 15.656 9.56301L16.486 9.29301L16.605 9.24001C16.714 9.17725 16.8024 9.08423 16.8595 8.97223C16.9167 8.86023 16.9401 8.73406 16.927 8.60901L16.9 8.48201L15.28 3.49901C15.234 3.3581 15.1409 3.23733 15.0163 3.15701C14.8918 3.0767 14.7433 3.04174 14.596 3.05801M12.846 11.992C12.8457 12.4326 12.7429 12.867 12.5457 13.261C12.3486 13.655 12.0624 13.9977 11.71 14.262L13.618 17.314L13.678 17.434C13.7317 17.5776 13.7342 17.7354 13.6849 17.8806C13.6357 18.0258 13.5378 18.1496 13.4077 18.2309C13.2777 18.3122 13.1236 18.346 12.9715 18.3267C12.8194 18.3075 12.6786 18.2362 12.573 18.125L12.49 18.019L10.475 14.796C10.3178 14.8233 10.1586 14.838 9.999 14.84C9.835 14.8387 9.675 14.824 9.519 14.796L7.506 18.02L7.423 18.126C7.30925 18.2447 7.15557 18.317 6.99162 18.3291C6.82767 18.3411 6.66508 18.292 6.53521 18.1912C6.40534 18.0904 6.31741 17.9451 6.28838 17.7833C6.25935 17.6215 6.29127 17.4547 6.378 17.315L8.285 14.263C7.71217 13.8314 7.32384 13.1991 7.198 12.493L5.208 13.053C4.64839 13.2105 4.0507 13.1604 3.52512 12.9119C2.99953 12.6635 2.58148 12.2334 2.348 11.701L2.262 11.477L1.929 10.454C1.74157 9.87751 1.77829 9.25155 2.03183 8.70091C2.28537 8.15027 2.73711 7.71541 3.297 7.48301L11.588 4.03401C11.718 3.15701 12.327 2.38401 13.228 2.09201L14.058 1.82201L14.252 1.76901C14.7299 1.66641 15.2289 1.74468 15.6525 1.98869C16.076 2.23269 16.394 2.6251 16.545 3.09001L18.165 8.07201L18.217 8.26701C18.3122 8.71066 18.2517 9.17355 18.0457 9.57785C17.8398 9.98215 17.5008 10.3032 17.086 10.487L16.897 10.56L16.066 10.83C15.7284 10.9402 15.3707 10.9741 15.0184 10.9294C14.6662 10.8846 14.3282 10.7622 14.029 10.571L12.649 10.958C12.775 11.279 12.847 11.628 12.847 11.993" fill="#0D0D0D"/>
</g>
<defs>
<clipPath id="clip0_1_46">
<rect width="20" height="20" fill="white"/>
</clipPath>
</defs>
</svg>
