<svg width="20" height="20" viewBox="0 0 20 20" fill="none" xmlns="http://www.w3.org/2000/svg">
<g clip-path="url(#clip0_1_59)">
<path d="M9.99997 2.085C11.946 2.085 13.727 2.788 15.105 3.953L15.363 3.696L15.468 3.611C15.6057 3.52166 15.7717 3.48637 15.9339 3.5119C16.0961 3.53744 16.2432 3.622 16.3468 3.74935C16.4505 3.8767 16.5035 4.03786 16.4955 4.20188C16.4876 4.3659 16.4194 4.52121 16.304 4.638L16.046 4.895C17.2548 6.32108 17.9173 8.1305 17.915 10C17.917 11.8696 17.2542 13.6791 16.045 15.105L16.304 15.363L16.389 15.468C16.4725 15.5959 16.5094 15.7486 16.4936 15.9005C16.4778 16.0523 16.4102 16.1942 16.3021 16.3021C16.1941 16.41 16.0522 16.4775 15.9003 16.4931C15.7484 16.5087 15.5957 16.4716 15.468 16.388L15.363 16.304L15.105 16.046C13.6789 17.2548 11.8695 17.9173 9.99997 17.915C8.13035 17.917 6.32091 17.2542 4.89497 16.045L4.63797 16.304L4.53297 16.389C4.39529 16.4783 4.2295 16.5136 4.06739 16.4882C3.90527 16.4627 3.75825 16.3784 3.65452 16.2512C3.5508 16.1241 3.49766 15.9631 3.50531 15.7992C3.51296 15.6353 3.58085 15.4799 3.69597 15.363L3.95297 15.105C2.74448 13.6788 2.08239 11.8694 2.08497 10C2.08497 8.054 2.78797 6.273 3.95297 4.895L3.69597 4.638L3.61097 4.533C3.52716 4.40498 3.48999 4.25202 3.5057 4.09982C3.52142 3.94762 3.58906 3.80547 3.69725 3.69728C3.80544 3.58909 3.94759 3.52145 4.09979 3.50573C4.25199 3.49002 4.40495 3.52719 4.53297 3.611L4.63797 3.696L4.89497 3.953C6.32119 2.74451 8.1306 2.08242 9.99997 2.085ZM12.316 13.257C11.6403 13.7399 10.8305 13.9994 9.99997 13.999C9.16944 13.9985 8.35964 13.7396 7.68297 13.258L5.83897 15.102C7.01282 16.0625 8.48323 16.5866 9.99997 16.585C11.5167 16.5866 12.9871 16.0625 14.161 15.102L12.316 13.257ZM4.89697 5.837C3.93639 7.01152 3.41266 8.4827 3.41497 10C3.41497 11.579 3.97097 13.027 4.89697 14.161L6.74197 12.317C6.26077 11.6402 6.00214 10.8304 6.00197 10C6.00197 9.136 6.27597 8.336 6.74197 7.683L4.89697 5.837ZM13.257 7.683C13.7392 8.35944 13.9989 9.16925 14 10C14 10.864 13.724 11.663 13.258 12.316L15.103 14.161C16.0631 12.987 16.5868 11.5166 16.585 10C16.5865 8.48326 16.0625 7.01285 15.102 5.839L13.257 7.683ZM9.99997 7.332C9.29224 7.332 8.61349 7.61314 8.11305 8.11358C7.61261 8.61403 7.33147 9.29277 7.33147 10.0005C7.33147 10.7082 7.61261 11.387 8.11305 11.8874C8.61349 12.3879 9.29224 12.669 9.99997 12.669C10.7077 12.669 11.3864 12.3879 11.8869 11.8874C12.3873 11.387 12.6685 10.7082 12.6685 10.0005C12.6685 9.29277 12.3873 8.61403 11.8869 8.11358C11.3864 7.61314 10.7077 7.332 9.99997 7.332ZM9.99997 3.415C8.48301 3.41292 7.01222 3.93664 5.83797 4.897L7.68297 6.742C8.35976 6.2608 9.16955 6.00217 9.99997 6.002C10.8304 6.00217 11.6402 6.2608 12.317 6.742L14.161 4.897C12.987 3.93686 11.5166 3.41315 9.99997 3.415Z" fill="#0D0D0D"/>
</g>
<defs>
<clipPath id="clip0_1_59">
<rect width="20" height="20" fill="white"/>
</clipPath>
</defs>
</svg>
