<svg width="24" height="24" viewBox="0 0 24 24" fill="none" xmlns="http://www.w3.org/2000/svg">
<g clip-path="url(#clip0_1_71)">
<path d="M13.4976 21.9C12.8376 21.9 12.2104 21.7744 11.616 21.5232C11.0277 21.2746 10.4906 20.919 10.032 20.4744C9.52828 20.6461 8.99947 20.7329 8.46724 20.7312C7.60506 20.738 6.75695 20.5125 6.01204 20.0784C5.26446 19.6472 4.63789 19.0343 4.19044 18.2964C3.73922 17.5362 3.50667 16.6663 3.51844 15.7824C3.51844 15.3984 3.57084 14.9824 3.67564 14.5344C3.15879 14.0606 2.74148 13.4887 2.44804 12.852C2.15708 12.2106 2.00826 11.514 2.01178 10.8097C2.0153 10.1055 2.17108 9.41036 2.46844 8.77198C2.76532 8.12129 3.19728 7.54124 3.73564 7.07038C4.28502 6.58401 4.94366 6.2374 5.65564 6.05998C5.79357 5.32347 6.10634 4.63086 6.56764 4.04038C7.04204 3.43318 7.62244 2.95798 8.30884 2.61478C8.99091 2.27254 9.74413 2.09616 10.5072 2.09998C11.1672 2.09998 11.794 2.22518 12.3876 2.47558C12.9812 2.72678 13.5092 3.07678 13.9716 3.52558C14.4753 3.35341 15.0041 3.26622 15.5364 3.26758C16.4212 3.26758 17.2396 3.48557 17.9916 3.92157C18.736 4.34991 19.3565 4.96388 19.7928 5.70358C20.2552 6.45638 20.4864 7.29438 20.4864 8.21758C20.4864 8.60158 20.4336 9.01758 20.328 9.46558C20.856 9.95358 21.2652 10.5212 21.5556 11.1684C21.846 11.802 21.9912 12.4684 21.9912 13.1676C21.9912 13.8812 21.8392 14.568 21.5352 15.228C21.2321 15.8859 20.7938 16.4726 20.2488 16.95C19.7029 17.4263 19.0513 17.7657 18.348 17.94C18.2094 18.6796 17.8899 19.3734 17.418 19.9596C16.962 20.562 16.372 21.05 15.6948 21.3852C15.0128 21.7274 14.2595 21.9038 13.4964 21.9M8.60524 19.4256C9.26524 19.4256 9.83924 19.2868 10.3272 19.0092L14.0508 16.8708C14.1132 16.8304 14.164 16.7746 14.1985 16.7088C14.233 16.643 14.2499 16.5694 14.2476 16.4952V14.7912L9.45724 17.544C9.32737 17.6277 9.17614 17.6722 9.02164 17.6722C8.86713 17.6722 8.7159 17.6277 8.58604 17.544L4.84444 15.3864C4.84302 15.433 4.83618 15.4793 4.82404 15.5244V15.762C4.82404 16.4348 4.98243 17.0552 5.29924 17.6232C5.62964 18.1776 6.08524 18.6132 6.66604 18.93C7.25773 19.2635 7.92729 19.4341 8.60644 19.4244M8.80444 16.1964C8.87105 16.2333 8.9455 16.2539 9.02164 16.2564C9.08804 16.2564 9.15404 16.2364 9.21964 16.1964L10.7052 15.3444L5.93283 12.5724C5.79553 12.4971 5.68199 12.385 5.60502 12.2487C5.52805 12.1123 5.49072 11.9572 5.49724 11.8008V7.50478C4.83723 7.79438 4.30924 8.24318 3.91324 8.85118C3.51926 9.43578 3.31211 10.1262 3.31924 10.8312C3.31924 11.4784 3.48444 12.0984 3.81484 12.6912C4.14444 13.2856 4.57324 13.7348 5.10124 14.0388L8.80444 16.1964ZM13.4964 20.592C14.1964 20.592 14.8304 20.4336 15.3984 20.1168C15.9642 19.8058 16.4345 19.3466 16.7588 18.7884C17.0832 18.2303 17.2493 17.5943 17.2392 16.9488V12.672C17.243 12.6 17.2265 12.5284 17.1914 12.4653C17.1564 12.4023 17.1044 12.3504 17.0412 12.3156L15.5364 11.4444V16.9692C15.5429 17.1256 15.5056 17.2807 15.4286 17.4171C15.3517 17.5534 15.2381 17.6655 15.1008 17.7408L11.358 19.8996C11.979 20.3529 12.7288 20.5956 13.4976 20.592M14.25 13.3452V10.6536L12.012 9.38638L9.75484 10.6536V13.3464L12.012 14.6136L14.25 13.3452ZM8.46844 7.03078C8.46169 6.87415 8.49892 6.71876 8.5759 6.58218C8.65288 6.44561 8.76655 6.33331 8.90404 6.25798L12.6468 4.10038C12.0263 3.64684 11.277 3.40378 10.5084 3.40678C9.80924 3.40678 9.17564 3.56517 8.60764 3.88198C8.04938 4.18885 7.58392 4.64021 7.26004 5.18878C6.93983 5.75624 6.77586 6.39847 6.78483 7.04998V11.3064C6.78483 11.4656 6.85083 11.5912 6.98283 11.6832L8.46724 12.5544L8.46844 7.03078ZM18.528 16.4952C19.188 16.204 19.7092 15.7548 20.0916 15.1476C20.4876 14.5412 20.6856 13.8812 20.6856 13.1676C20.6841 12.5153 20.5138 11.8745 20.1912 11.3076C19.8608 10.7132 19.4316 10.264 18.9036 9.95998L15.2004 7.82158C15.1212 7.76958 15.0488 7.74998 14.9832 7.76278C14.9128 7.76297 14.8439 7.78383 14.7852 7.82278L13.2996 8.65318L18.0912 11.4456C18.2278 11.5148 18.3388 11.6258 18.408 11.7624C18.4908 11.8923 18.5326 12.044 18.528 12.198V16.4952ZM14.5476 6.43678C14.6751 6.34691 14.8273 6.29867 14.9832 6.29867C15.1392 6.29867 15.2914 6.34691 15.4188 6.43678L19.1808 8.63398V8.27758C19.1808 7.64398 19.0224 7.04358 18.7056 6.47638C18.4044 5.89774 17.9444 5.41696 17.3796 5.09038C16.8116 4.74638 16.1516 4.57438 15.3996 4.57438C14.7396 4.57438 14.1652 4.71318 13.6764 4.99078L9.95284 7.12918C9.89011 7.16954 9.83891 7.22547 9.80421 7.2915C9.76951 7.35753 9.7525 7.43142 9.75484 7.50598V9.20758L14.5476 6.43678Z" fill="#0D0D0D"/>
</g>
<defs>
<clipPath id="clip0_1_71">
<rect width="24" height="24" fill="white"/>
</clipPath>
</defs>
</svg>
