<svg width="20" height="20" viewBox="0 0 20 20" fill="none" xmlns="http://www.w3.org/2000/svg">
<g clip-path="url(#clip0_1_85)">
<path d="M9.33496 16.5V10.665H3.49996C3.41263 10.665 3.32616 10.6478 3.24548 10.6144C3.16479 10.581 3.09149 10.532 3.02973 10.4702C2.96798 10.4085 2.919 10.3352 2.88558 10.2545C2.85216 10.1738 2.83496 10.0874 2.83496 10C2.83496 9.91269 2.85216 9.82622 2.88558 9.74554C2.919 9.66486 2.96798 9.59155 3.02973 9.5298C3.09149 9.46804 3.16479 9.41906 3.24548 9.38564C3.32616 9.35222 3.41263 9.33502 3.49996 9.33502H9.33496V3.50002C9.33496 3.32365 9.40502 3.15451 9.52973 3.0298C9.65445 2.90508 9.82359 2.83502 9.99996 2.83502C10.1763 2.83502 10.3455 2.90508 10.4702 3.0298C10.5949 3.15451 10.665 3.32365 10.665 3.50002V9.33502H16.5L16.634 9.34902C16.7835 9.38021 16.9178 9.46196 17.0142 9.58052C17.1106 9.69908 17.1632 9.84722 17.1632 10C17.1632 10.1528 17.1106 10.301 17.0142 10.4195C16.9178 10.5381 16.7835 10.6198 16.634 10.651L16.5 10.665H10.665V16.5C10.665 16.5874 10.6478 16.6738 10.6143 16.7545C10.5809 16.8352 10.5319 16.9085 10.4702 16.9702C10.4084 17.032 10.3351 17.081 10.2544 17.1144C10.1738 17.1478 10.0873 17.165 9.99996 17.165C9.91263 17.165 9.82616 17.1478 9.74548 17.1144C9.6648 17.081 9.59149 17.032 9.52973 16.9702C9.46798 16.9085 9.419 16.8352 9.38558 16.7545C9.35216 16.6738 9.33496 16.5874 9.33496 16.5Z" fill="#0D0D0D"/>
</g>
<defs>
<clipPath id="clip0_1_85">
<rect width="20" height="20" fill="white"/>
</clipPath>
</defs>
</svg>
