<svg width="20" height="20" viewBox="0 0 20 20" fill="none" xmlns="http://www.w3.org/2000/svg">
<g clip-path="url(#clip0_1_944)">
<path d="M6 10.5C6 11.3284 5.32843 12 4.5 12C3.67157 12 3 11.3284 3 10.5C3 9.67157 3.67157 9 4.5 9C5.32843 9 6 9.67157 6 10.5Z" fill="#0D0D0D"/>
<path d="M11.5 10.5C11.5 11.3284 10.8284 12 10 12C9.17157 12 8.5 11.3284 8.5 10.5C8.5 9.67157 9.17157 9 10 9C10.8284 9 11.5 9.67157 11.5 10.5Z" fill="#0D0D0D"/>
<path d="M17 10.5C17 11.3284 16.3284 12 15.5 12C14.6716 12 14 11.3284 14 10.5C14 9.67157 14.6716 9 15.5 9C16.3284 9 17 9.67157 17 10.5Z" fill="#0D0D0D"/>
</g>
<defs>
<clipPath id="clip0_1_944">
<rect width="20" height="20" fill="white"/>
</clipPath>
</defs>
</svg>
